<svg xmlns="http://www.w3.org/2000/svg" viewBox="0 0 512 512">
  <defs>
    <linearGradient id="bg" x1="0%" y1="0%" x2="100%" y2="100%">
      <stop offset="0%" stop-color="#2563eb"/>
      <stop offset="100%" stop-color="#9333ea"/>
    </linearGradient>
  </defs>
  <rect width="512" height="512" rx="96" fill="url(#bg)"/>
  <!-- Brain icon (simplified from Lucide) -->
  <g transform="translate(128,128) scale(10.67)" fill="none" stroke="white" stroke-width="2" stroke-linecap="round" stroke-linejoin="round">
    <path d="M12 5a3 3 0 1 0-5.997.125 4 4 0 0 0-2.526 5.77 4 4 0 0 0 .556 6.588A4 4 0 1 0 12 18Z"/>
    <path d="M12 5a3 3 0 1 1 5.997.125 4 4 0 0 1 2.526 5.77 4 4 0 0 1-.556 6.588A4 4 0 1 1 12 18Z"/>
    <path d="M12 5v14"/>
    <path d="M6.5 8.5c1.5 0 3 .5 3 2"/>
    <path d="M17.5 8.5c-1.5 0-3 .5-3 2"/>
    <path d="M6.5 13.5c1.5 0 3-.5 3-2"/>
    <path d="M17.5 13.5c-1.5 0-3-.5-3-2"/>
  </g>
</svg>
